<svg width="22" height="24" viewBox="0 0 22 24" fill="none" xmlns="http://www.w3.org/2000/svg">
<path d="M14.7505 18.1111V19.3333C14.7505 20.3058 14.3554 21.2384 13.6521 21.9261C12.9489 22.6137 11.9951 23 11.0005 23C10.0059 23 9.0521 22.6137 8.34884 21.9261C7.64558 21.2384 7.25049 20.3058 7.25049 19.3333V18.1111M14.7505 18.1111H7.25049M14.7505 18.1111H19.238C19.7167 18.1111 19.9567 18.1111 20.1505 18.0476C20.3327 17.9872 20.4983 17.8866 20.6342 17.7534C20.7702 17.6203 20.8728 17.4583 20.9342 17.28C21.0005 17.0893 21.0005 16.8547 21.0005 16.3829C21.0005 16.1763 21.0005 16.0737 20.983 15.9747C20.9521 15.7896 20.8781 15.614 20.7667 15.4613C20.7067 15.3794 20.6317 15.3061 20.483 15.1607L19.9955 14.684C19.9177 14.6079 19.8561 14.5176 19.814 14.4182C19.772 14.3188 19.7504 14.2122 19.7505 14.1047V9.55556C19.7505 8.43202 19.5242 7.31949 19.0844 6.28149C18.6447 5.24348 18.0002 4.30032 17.1877 3.50586C16.3752 2.71141 15.4106 2.08121 14.349 1.65125C13.2874 1.2213 12.1496 1 11.0005 1C9.85142 1 8.71361 1.2213 7.65201 1.65125C6.59041 2.08121 5.62582 2.71141 4.8133 3.50586C4.00079 4.30032 3.35627 5.24348 2.91654 6.28149C2.47681 7.31949 2.25049 8.43202 2.25049 9.55556V14.1047C2.25057 14.2122 2.22897 14.3188 2.18693 14.4182C2.14489 14.5176 2.08324 14.6079 2.00549 14.684L1.51799 15.1607C1.36799 15.3073 1.29424 15.3794 1.23549 15.4601C1.12302 15.6129 1.04816 15.789 1.01674 15.9747C1.00049 16.0724 1.00049 16.1763 1.00049 16.3829C1.00049 16.8547 1.00049 17.0893 1.06549 17.28C1.12715 17.4585 1.23021 17.6207 1.3666 17.7539C1.503 17.887 1.66903 17.9875 1.85174 18.0476C2.04549 18.1111 2.28424 18.1111 2.76299 18.1111H7.25049" stroke="#595959" stroke-width="2" stroke-linecap="round" stroke-linejoin="round"/>
</svg>
