<svg width="40" height="40" viewBox="0 0 40 40" fill="none" xmlns="http://www.w3.org/2000/svg">
<path d="M23.75 26.1111V27.3333C23.75 28.3058 23.3549 29.2384 22.6517 29.9261C21.9484 30.6137 20.9946 31 20 31C19.0054 31 18.0516 30.6137 17.3483 29.9261C16.6451 29.2384 16.25 28.3058 16.25 27.3333V26.1111M23.75 26.1111H16.25M23.75 26.1111H28.2375C28.7163 26.1111 28.9563 26.1111 29.15 26.0476C29.3322 25.9872 29.4978 25.8866 29.6337 25.7534C29.7697 25.6203 29.8723 25.4583 29.9338 25.28C30 25.0893 30 24.8547 30 24.3829C30 24.1763 30 24.0737 29.9825 23.9747C29.9516 23.7896 29.8777 23.614 29.7662 23.4613C29.7062 23.3794 29.6313 23.3061 29.4825 23.1607L28.995 22.684C28.9172 22.6079 28.8556 22.5176 28.8136 22.4182C28.7715 22.3188 28.7499 22.2122 28.75 22.1047V17.5556C28.75 16.432 28.5237 15.3195 28.0839 14.2815C27.6442 13.2435 26.9997 12.3003 26.1872 11.5059C25.3747 10.7114 24.4101 10.0812 23.3485 9.65125C22.2869 9.2213 21.1491 9 20 9C18.8509 9 17.7131 9.2213 16.6515 9.65125C15.5899 10.0812 14.6253 10.7114 13.8128 11.5059C13.0003 12.3003 12.3558 13.2435 11.9161 14.2815C11.4763 15.3195 11.25 16.432 11.25 17.5556V22.1047C11.2501 22.2122 11.2285 22.3188 11.1864 22.4182C11.1444 22.5176 11.0828 22.6079 11.005 22.684L10.5175 23.1607C10.3675 23.3073 10.2938 23.3794 10.235 23.4601C10.1225 23.6129 10.0477 23.789 10.0163 23.9747C10 24.0724 10 24.1763 10 24.3829C10 24.8547 10 25.0893 10.065 25.28C10.1267 25.4585 10.2297 25.6207 10.3661 25.7539C10.5025 25.887 10.6685 25.9875 10.8513 26.0476C11.045 26.1111 11.2837 26.1111 11.7625 26.1111H16.25" stroke="#595959" stroke-width="2" stroke-linecap="round" stroke-linejoin="round"/>
</svg>
