<svg width="226" height="26" viewBox="0 0 226 26" fill="none" xmlns="http://www.w3.org/2000/svg">
<rect y="2" width="22" height="22" rx="11" fill="#36A862"/>
<path fill-rule="evenodd" clip-rule="evenodd" d="M15.995 9.96505C16.1112 10.0935 16.1764 10.2677 16.1764 10.4493C16.1764 10.6309 16.1112 10.805 15.995 10.9335L10.2057 17.329C10.0894 17.4573 9.93178 17.5294 9.7674 17.5294C9.60303 17.5294 9.44538 17.4573 9.32907 17.329L6.02091 13.6744C5.95997 13.6117 5.91109 13.536 5.87718 13.452C5.84328 13.3679 5.82505 13.2772 5.82358 13.1852C5.82211 13.0932 5.83743 13.0018 5.86863 12.9165C5.89983 12.8311 5.94626 12.7536 6.00516 12.6886C6.06406 12.6235 6.13422 12.5722 6.21146 12.5377C6.2887 12.5033 6.37142 12.4863 6.45471 12.488C6.53799 12.4896 6.62013 12.5097 6.69622 12.5472C6.77231 12.5846 6.84079 12.6386 6.89757 12.706L9.7674 15.8763L15.1184 9.96505C15.2347 9.83672 15.3923 9.76465 15.5567 9.76465C15.7211 9.76465 15.8787 9.83672 15.995 9.96505Z" fill="#EBF6EF"/>
<path d="M226 16.501C226 16.7321 225.976 17.0326 225.929 17.4023H211.34C211.482 19.1588 212.148 20.5685 213.337 21.6316C214.526 22.6947 216.036 23.2263 217.867 23.2263C220.031 23.2263 221.767 22.4752 223.075 20.973L224.823 22.9143C224.014 23.8849 223.004 24.6245 221.791 25.1329C220.602 25.6414 219.27 25.8956 217.796 25.8956C215.917 25.8956 214.241 25.5027 212.766 24.7169C211.292 23.9081 210.151 22.7987 209.342 21.389C208.534 19.9561 208.129 18.3383 208.129 16.5357C208.129 14.7561 208.522 13.1615 209.307 11.7517C210.091 10.3189 211.161 9.19798 212.517 8.3891C213.896 7.58022 215.43 7.17578 217.118 7.17578C218.783 7.17578 220.293 7.56867 221.648 8.35444C223.004 9.11709 224.062 10.2149 224.823 11.6477C225.608 13.0575 226 14.6753 226 16.501ZM217.154 9.74109C215.561 9.74109 214.229 10.2611 213.159 11.3011C212.089 12.3411 211.482 13.693 211.34 15.357H222.968C222.802 13.693 222.183 12.3411 221.113 11.3011C220.043 10.2611 218.723 9.74109 217.154 9.74109Z" fill="#36A862"/>
<path d="M207.257 24.6826C206.782 25.0755 206.199 25.3759 205.51 25.5839C204.844 25.7919 204.119 25.8959 203.334 25.8959C201.55 25.8959 200.159 25.4106 199.16 24.4399C198.185 23.4461 197.698 22.0479 197.698 20.2453V10.1921H194.666V7.59208H197.698V3.36279H200.908V7.59208H206.08V10.1921H200.908V20.1413C200.908 21.1351 201.158 21.9093 201.657 22.4639C202.157 22.9955 202.858 23.2613 203.762 23.2613C204.761 23.2613 205.593 22.9608 206.259 22.3599L207.257 24.6826Z" fill="#36A862"/>
<path d="M184.266 7.17578C186.74 7.17578 188.63 7.79978 189.938 9.04776C191.246 10.2957 191.9 12.1331 191.9 14.5597V25.7223H188.904V22.741C188.38 23.7578 187.596 24.5436 186.549 25.0983C185.527 25.6298 184.29 25.8956 182.84 25.8956C180.795 25.8956 179.189 25.4103 178.024 24.4396C176.859 23.4458 176.276 22.1516 176.276 20.557C176.276 18.9623 176.847 17.6912 177.989 16.7437C179.154 15.773 180.961 15.2877 183.41 15.2877H188.69C188.69 14.5019 188.618 13.8895 188.475 13.4504C188.333 12.2717 187.881 11.382 187.12 10.7811C186.359 10.1571 185.289 9.84509 183.91 9.84509C182.816 9.84509 181.758 10.03 180.735 10.3997C179.713 10.7695 178.845 11.278 178.131 11.9251L176.883 9.63709C177.81 8.85132 178.916 8.25044 180.2 7.83444C181.508 7.39534 182.863 7.17578 184.266 7.17578ZM183.553 23.6076C184.813 23.6076 185.883 23.3187 186.763 22.741C187.643 22.1401 188.285 21.285 188.69 20.1756V17.333H183.696C182.198 17.333 181.104 17.6103 180.414 18.165C179.748 18.6966 179.415 19.4361 179.415 20.3836C179.415 21.3774 179.784 22.1632 180.521 22.741C181.258 23.3187 182.269 23.6076 183.553 23.6076Z" fill="#36A862"/>
<path d="M165.708 7.17578C167.919 7.17578 169.667 7.846 170.951 9.18643C172.235 10.5269 172.877 12.4913 172.877 15.0797V25.7223H169.703V15.5304C169.703 13.7277 169.286 12.3642 168.454 11.4397C167.646 10.5153 166.504 10.0531 165.03 10.0531C163.365 10.0531 162.034 10.5962 161.035 11.6824C160.06 12.7686 159.572 14.2708 159.572 16.189V25.7223H156.362V15.5304C156.362 13.7277 155.958 12.3642 155.149 11.4397C154.341 10.5153 153.199 10.0531 151.725 10.0531C150.06 10.0531 148.741 10.5962 147.766 11.6824C146.791 12.7686 146.303 14.2708 146.303 16.189V25.7223H143.057V7.38378H146.16V10.6424C146.779 9.53309 147.635 8.67799 148.729 8.07711C149.823 7.47622 151.083 7.17578 152.51 7.17578C154.008 7.17578 155.304 7.52244 156.398 8.21577C157.492 8.88599 158.288 9.8682 158.788 11.1624C159.43 9.93753 160.345 8.96687 161.534 8.25044C162.747 7.534 164.138 7.17578 165.708 7.17578Z" fill="#36A862"/>
<path d="M119.247 20.5918V25.7224H116.036V0H119.247V16.7092L129.056 7.38392H132.98L125.346 14.9412L133.693 25.7224H129.769L122.992 17.0212L119.247 20.5918Z" fill="#36A862"/>
<path d="M105.19 25.8956C103.383 25.8956 101.754 25.5027 100.303 24.7169C98.8765 23.9081 97.7588 22.7987 96.9503 21.389C96.1418 19.9561 95.7375 18.3383 95.7375 16.5357C95.7375 14.733 96.1418 13.1268 96.9503 11.7171C97.7588 10.2842 98.8765 9.17487 100.303 8.3891C101.754 7.58022 103.383 7.17578 105.19 7.17578C106.831 7.17578 108.281 7.52244 109.542 8.21577C110.826 8.88599 111.825 9.84509 112.538 11.0931L110.041 12.5837C109.494 11.7055 108.793 11.0469 107.937 10.6077C107.104 10.1686 106.189 9.94909 105.19 9.94909C104.025 9.94909 102.967 10.2264 102.015 10.7811C101.064 11.3126 100.315 12.0753 99.7682 13.0691C99.2451 14.0628 98.9835 15.2184 98.9835 16.5357C98.9835 17.853 99.2451 19.0201 99.7682 20.037C100.315 21.0307 101.064 21.805 102.015 22.3596C102.967 22.8912 104.025 23.1569 105.19 23.1569C106.213 23.1569 107.14 22.9489 107.972 22.533C108.805 22.0938 109.494 21.4236 110.041 20.5223L112.538 22.013C111.825 23.2609 110.826 24.22 109.542 24.8903C108.281 25.5605 106.831 25.8956 105.19 25.8956Z" fill="#36A862"/>
<path d="M93.6382 16.501C93.6382 16.7321 93.6144 17.0326 93.5669 17.4023H78.9779C79.1206 19.1588 79.7864 20.5685 80.9754 21.6316C82.1644 22.6947 83.6744 23.2263 85.5055 23.2263C87.6694 23.2263 89.4054 22.4752 90.7133 20.973L92.4611 22.9143C91.6526 23.8849 90.6419 24.6245 89.4292 25.1329C88.2402 25.6414 86.9085 25.8956 85.4341 25.8956C83.5555 25.8956 81.879 25.5027 80.4047 24.7169C78.9303 23.9081 77.7889 22.7987 76.9804 21.389C76.1718 19.9561 75.7676 18.3383 75.7676 16.5357C75.7676 14.7561 76.1599 13.1615 76.9447 11.7517C77.7294 10.3189 78.7995 9.19798 80.155 8.3891C81.5342 7.58022 83.068 7.17578 84.7564 7.17578C86.421 7.17578 87.931 7.56867 89.2865 8.35444C90.6419 9.11709 91.7001 10.2149 92.4611 11.6477C93.2458 13.0575 93.6382 14.6753 93.6382 16.501ZM84.7921 9.74109C83.1988 9.74109 81.8671 10.2611 80.797 11.3011C79.7269 12.3411 79.1206 13.693 78.9779 15.357H90.6063C90.4398 13.693 89.8215 12.3411 88.7514 11.3011C87.6813 10.2611 86.3615 9.74109 84.7921 9.74109Z" fill="#36A862"/>
<path d="M64.7933 7.17593C67.0286 7.17593 68.8002 7.8577 70.1081 9.22124C71.4398 10.5617 72.1056 12.5145 72.1056 15.0798V25.7224H68.8953V15.5305C68.8953 13.7279 68.4673 12.3643 67.6112 11.4399C66.7789 10.5154 65.578 10.0532 64.0085 10.0532C62.2488 10.0532 60.8577 10.5963 59.8352 11.6825C58.8126 12.7688 58.3014 14.2941 58.3014 16.2585V25.7224H55.0911V0H58.3014V10.5039C58.9434 9.44079 59.8233 8.62035 60.9409 8.04258C62.0586 7.46481 63.3427 7.17593 64.7933 7.17593Z" fill="#36A862"/>
<path d="M42.5201 25.9998C40.1659 25.9998 38.0257 25.4682 36.0996 24.4051C34.1972 23.3189 32.699 21.8398 31.6051 19.9678C30.535 18.0728 30 15.9466 30 13.5892C30 11.2319 30.5469 9.11729 31.6408 7.24531C32.7347 5.35022 34.2328 3.87113 36.1352 2.80803C38.0376 1.72182 40.1778 1.17871 42.5558 1.17871C44.3869 1.17871 46.0752 1.50226 47.6209 2.14937C49.1666 2.77336 50.4745 3.69779 51.5446 4.92267L49.4401 6.96798C47.6328 5.04978 45.3856 4.09068 42.6985 4.09068C40.915 4.09068 39.3098 4.50668 37.8831 5.33867C36.48 6.14755 35.3743 7.27998 34.5657 8.73596C33.7572 10.1688 33.353 11.7866 33.353 13.5892C33.353 15.3688 33.7572 16.9865 34.5657 18.4425C35.3743 19.8754 36.4919 21.0078 37.9187 21.8398C39.3455 22.6487 40.9388 23.0531 42.6985 23.0531C45.4094 23.0531 47.6566 22.0825 49.4401 20.1412L51.5446 22.1865C50.4745 23.4345 49.1666 24.382 47.6209 25.0291C46.0752 25.6762 44.375 25.9998 42.5201 25.9998Z" fill="#36A862"/>
</svg>
