<svg width="40" height="40" viewBox="0 0 40 40" fill="none" xmlns="http://www.w3.org/2000/svg">
<path d="M24 13.7778V12M16 13.7778V12M12.2222 16.4444H27.7778M12 18.2613C12 16.3813 12 15.4409 12.3876 14.7227C12.738 14.082 13.2818 13.5684 13.9413 13.2551C14.7022 12.8889 15.6978 12.8889 17.6889 12.8889H22.3111C24.3022 12.8889 25.2978 12.8889 26.0587 13.2551C26.728 13.5769 27.2711 14.0907 27.6124 14.7218C28 15.4418 28 16.3822 28 18.2622V22.6284C28 24.5084 28 25.4489 27.6124 26.1671C27.262 26.8077 26.7182 27.3213 26.0587 27.6347C25.2978 28 24.3022 28 22.3111 28H17.6889C15.6978 28 14.7022 28 13.9413 27.6338C13.2819 27.3207 12.7381 26.8074 12.3876 26.1671C12 25.4471 12 24.5067 12 22.6267V18.2613Z" stroke="#595959" stroke-width="1.5" stroke-linecap="round" stroke-linejoin="round"/>
</svg>
