<svg width="65" height="20" viewBox="0 0 65 20" fill="none" xmlns="http://www.w3.org/2000/svg">
<rect x="0.5" y="0.5" width="19" height="19" rx="9.5" stroke="#777777"/>
<path d="M36.9082 4.46094V6.92188H38.4434V7.83594H36.9082V10.2383H35.7949V4.46094H36.9082ZM36.9082 10.7305V13.168H31.2363V14.0469H37.2715V14.8906H30.1465V12.3828H35.8066V11.5625H30.123V10.7305H36.9082ZM34.9277 5.38672V6.26562H28.6699V5.38672H31.248V4.40234H32.3613V5.38672H34.9277ZM31.7988 6.66406C33.334 6.66406 34.3418 7.32031 34.3418 8.38672C34.3418 9.45312 33.334 10.0977 31.7988 10.0977C30.252 10.0977 29.2441 9.45312 29.2441 8.38672C29.2441 7.32031 30.252 6.66406 31.7988 6.66406ZM31.7988 7.46094C30.8965 7.46094 30.3105 7.82422 30.3223 8.38672C30.3105 8.94922 30.8965 9.28906 31.7988 9.28906C32.7012 9.28906 33.2871 8.94922 33.2988 8.38672C33.2871 7.82422 32.7012 7.46094 31.7988 7.46094ZM42.0059 4.84766C43.5879 4.85938 44.748 5.83203 44.7598 7.20312C44.748 8.58594 43.5879 9.54688 42.0059 9.54688C40.4121 9.54688 39.2402 8.58594 39.2402 7.20312C39.2402 5.83203 40.4121 4.85938 42.0059 4.84766ZM42.0059 5.78516C41.0332 5.77344 40.3184 6.34766 40.3301 7.20312C40.3184 8.07031 41.0332 8.64453 42.0059 8.64453C42.9668 8.64453 43.6816 8.07031 43.6816 7.20312C43.6816 6.34766 42.9668 5.77344 42.0059 5.78516ZM47.7363 4.49609V9.83984H46.623V4.49609H47.7363ZM47.7363 10.3203V12.9688H41.9473V13.9766H48.0879V14.8672H40.8691V12.1367H46.6348V11.2109H40.834V10.3203H47.7363ZM55.6465 14.1172C53.6777 14.1172 52.5293 12.5352 52.5293 9.75781C52.5293 7.00391 53.7012 5.39844 55.6465 5.39844C57.5918 5.39844 58.7637 7.00391 58.7637 9.75781C58.7637 12.5352 57.6035 14.1172 55.6465 14.1172ZM55.6465 13.0039C56.7949 13.0039 57.4746 11.8789 57.4746 9.75781C57.4746 7.64844 56.7832 6.48828 55.6465 6.48828C54.5098 6.48828 53.8184 7.64844 53.8184 9.75781C53.8184 11.8789 54.498 13.0039 55.6465 13.0039ZM63.3223 5.51562V14H62.0215V6.80469H61.9746L59.9473 8.12891V6.89844L62.0566 5.51562H63.3223Z" fill="#2A2A2A"/>
</svg>
