<svg width="40" height="40" viewBox="0 0 40 40" fill="none" xmlns="http://www.w3.org/2000/svg">
<path d="M20.5 30C21.8791 30.0017 23.245 29.7309 24.5192 29.2031C25.7933 28.6753 26.9506 27.901 27.9246 26.9246C28.901 25.9506 29.6753 24.7933 30.2031 23.5192C30.7309 22.245 31.0017 20.8791 31 19.5C31.0017 18.1209 30.7309 16.755 30.2031 15.4809C29.6753 14.2067 28.901 13.0494 27.9246 12.0755C26.9506 11.099 25.7933 10.3247 24.5192 9.79691C23.245 9.26913 21.8791 8.99831 20.5 9.00001C19.1209 8.99831 17.755 9.26913 16.4809 9.79691C15.2067 10.3247 14.0494 11.099 13.0755 12.0755C12.099 13.0494 11.3247 14.2067 10.7969 15.4809C10.2691 16.755 9.99831 18.1209 10 19.5C9.99831 20.8791 10.2691 22.245 10.7969 23.5192C11.3247 24.7933 12.099 25.9506 13.0755 26.9246C14.0494 27.901 15.2067 28.6753 16.4809 29.2031C17.755 29.7309 19.1209 30.0017 20.5 30Z" stroke="#595959" stroke-width="2" stroke-linejoin="round"/>
<path d="M16.3 19.5L19.45 22.65L25.75 16.35" stroke="#595959" stroke-width="2" stroke-linecap="round" stroke-linejoin="round"/>
</svg>
