<svg width="40" height="40" viewBox="0 0 40 40" fill="none" xmlns="http://www.w3.org/2000/svg">
<path d="M12 15H28M18 19V25M22 19V25M13 15L14 27C14 27.5304 14.2107 28.0391 14.5858 28.4142C14.9609 28.7893 15.4696 29 16 29H24C24.5304 29 25.0391 28.7893 25.4142 28.4142C25.7893 28.0391 26 27.5304 26 27L27 15M17 15V12C17 11.7348 17.1054 11.4804 17.2929 11.2929C17.4804 11.1054 17.7348 11 18 11H22C22.2652 11 22.5196 11.1054 22.7071 11.2929C22.8946 11.4804 23 11.7348 23 12V15" stroke="#FD5344" stroke-width="1.5" stroke-linecap="round" stroke-linejoin="round"/>
</svg>
