<svg width="40" height="40" viewBox="0 0 40 40" fill="none" xmlns="http://www.w3.org/2000/svg">
<path d="M31 28.6667V17.3333C31 17.1263 30.9526 16.9222 30.8614 16.737C30.7703 16.5519 30.638 16.3909 30.475 16.2667L21.2875 9.26667C21.0603 9.09357 20.784 9 20.5 9C20.216 9 19.9397 9.09357 19.7125 9.26667L10.525 16.2667C10.362 16.3909 10.2297 16.5519 10.1386 16.737C10.0474 16.9222 10 17.1263 10 17.3333V28.6667C10 29.0203 10.1383 29.3594 10.3844 29.6095C10.6306 29.8595 10.9644 30 11.3125 30H16.5625C16.9106 30 17.2444 29.8595 17.4906 29.6095C17.7367 29.3594 17.875 29.0203 17.875 28.6667V24.6667C17.875 24.313 18.0133 23.9739 18.2594 23.7239C18.5056 23.4738 18.8394 23.3333 19.1875 23.3333H21.8125C22.1606 23.3333 22.4944 23.4738 22.7406 23.7239C22.9867 23.9739 23.125 24.313 23.125 24.6667V28.6667C23.125 29.0203 23.2633 29.3594 23.5094 29.6095C23.7556 29.8595 24.0894 30 24.4375 30H29.6875C30.0356 30 30.3694 29.8595 30.6156 29.6095C30.8617 29.3594 31 29.0203 31 28.6667Z" stroke="#595959" stroke-width="2" stroke-linecap="round" stroke-linejoin="round"/>
</svg>
