<svg width="40" height="40" viewBox="0 0 40 40" fill="none" xmlns="http://www.w3.org/2000/svg">
<path d="M35.4391 28.4289C35.4303 28.5602 35.4215 28.6959 35.4128 28.8359H30.148C30.218 29.4311 30.4544 29.9038 30.857 30.2539C31.2596 30.604 31.7673 30.779 32.38 30.779C33.1327 30.779 33.7454 30.5164 34.218 29.9913L34.9927 30.8709C34.3712 31.6237 33.4872 32 32.3406 32C31.6228 32 30.9883 31.8469 30.4368 31.5405C29.8854 31.2342 29.4565 30.8097 29.1502 30.267C28.8438 29.7243 28.6907 29.1116 28.6907 28.4289C28.6907 27.7462 28.8395 27.1335 29.1371 26.5908C29.4347 26.0482 29.8417 25.6237 30.3581 25.3173C30.8745 25.011 31.4565 24.8578 32.1043 24.8578C32.7257 24.8578 33.2902 25.0066 33.7979 25.3042C34.3056 25.593 34.7038 26.0088 34.9927 26.5514C35.2903 27.0941 35.4391 27.7199 35.4391 28.4289ZM32.1043 26.0132C31.5703 26.0132 31.1196 26.1882 30.7519 26.5383C30.3931 26.8884 30.1874 27.3479 30.1349 27.9169H34.0868C34.0255 27.3479 33.811 26.8884 33.4434 26.5383C33.0846 26.1882 32.6382 26.0132 32.1043 26.0132Z" fill="#36A862"/>
<path d="M28.4729 31.5536C28.2978 31.7024 28.0746 31.8162 27.8033 31.8949C27.5407 31.965 27.265 32 26.9761 32C26.2672 32 25.7201 31.8074 25.335 31.4223C24.9499 31.0284 24.7573 30.4639 24.7573 29.7286V26.2232H23.6676V25.0415H24.7573V23.4004H26.2015V25.0415H28.0265V26.2232H26.2015V29.6892C26.2015 30.0394 26.2847 30.3107 26.451 30.5033C26.626 30.6958 26.8667 30.7921 27.1731 30.7921C27.5232 30.7921 27.8164 30.6871 28.0527 30.477L28.4729 31.5536Z" fill="#36A862"/>
<path d="M19.8115 24.8578C20.7656 24.8578 21.4964 25.1029 22.0041 25.593C22.5117 26.0744 22.7656 26.7965 22.7656 27.7593V31.9213H21.4133V30.8841C21.2295 31.2429 20.9494 31.5186 20.573 31.7112C20.2054 31.9038 19.7634 32 19.247 32C18.4942 32 17.899 31.8119 17.4614 31.4355C17.0238 31.0504 16.8049 30.5515 16.8049 29.9388C16.8049 29.3173 17.0238 28.8228 17.4614 28.4552C17.899 28.0876 18.5817 27.9037 19.5095 27.9037H21.3214C21.3214 27.6149 21.2863 27.3786 21.2163 27.1948C21.0675 26.442 20.5424 26.0657 19.6408 26.0657C19.247 26.0657 18.8662 26.1313 18.4986 26.2626C18.1397 26.3939 17.829 26.5777 17.5664 26.814L17.0281 25.7506C17.3782 25.4705 17.7984 25.2517 18.2885 25.0941C18.7874 24.9366 19.2951 24.8578 19.8115 24.8578ZM19.5883 30.9628C20.0084 30.9628 20.3673 30.8622 20.6649 30.6609C20.9625 30.4596 21.1813 30.1663 21.3214 29.7812V28.8228H19.654C18.6912 28.8228 18.2097 29.1729 18.2097 29.8731C18.2097 30.2057 18.3323 30.4727 18.5774 30.674C18.8224 30.8666 19.1594 30.9628 19.5883 30.9628Z" fill="#36A862"/>
<path d="M13.0415 24.8578C13.8642 24.8578 14.5163 25.116 14.9977 25.6324C15.4791 26.1401 15.7198 26.8928 15.7198 27.8906V31.9213H14.2887V28.1138C14.2887 27.4661 14.1487 26.9803 13.8686 26.6565C13.5973 26.3326 13.2121 26.1707 12.7132 26.1707C12.1531 26.1707 11.7067 26.3589 11.3741 26.7353C11.0415 27.1116 10.8751 27.6455 10.8751 28.337V31.9213H9.44407V28.1138C9.44407 27.4661 9.3084 26.9803 9.03707 26.6565C8.76573 26.3326 8.38061 26.1707 7.88171 26.1707C7.32153 26.1707 6.87514 26.3589 6.54253 26.7353C6.21868 27.1116 6.05675 27.6455 6.05675 28.337V31.9213H4.61255V24.9366H5.99111V26.0263C6.22743 25.6499 6.53816 25.3611 6.92328 25.1598C7.31715 24.9584 7.76354 24.8578 8.26245 24.8578C8.78762 24.8578 9.24714 24.9759 9.64101 25.2123C10.0349 25.4398 10.3325 25.7812 10.5338 26.2363C10.7789 25.8075 11.1202 25.4705 11.5579 25.2254C11.9955 24.9803 12.49 24.8578 13.0415 24.8578Z" fill="#36A862"/>
<path d="M33.9725 15.8512V17.7418H32.5283V8H33.9725V14.0525L37.3336 10.7571H39.0666L36.257 13.6718L39.3292 17.7418H37.5699L35.2067 14.6171L33.9725 15.8512Z" fill="#36A862"/>
<path d="M28.5865 17.8205C27.9038 17.8205 27.2911 17.6717 26.7484 17.3741C26.2058 17.0677 25.7812 16.6432 25.4749 16.1006C25.1686 15.5579 25.0154 14.9408 25.0154 14.2493C25.0154 13.5579 25.1686 12.9408 25.4749 12.3981C25.7812 11.8555 26.2058 11.4353 26.7484 11.1377C27.2911 10.8314 27.9038 10.6782 28.5865 10.6782C29.2255 10.6782 29.79 10.8139 30.2802 11.0852C30.7703 11.3566 31.1423 11.7504 31.3961 12.2668L30.2802 12.9233C30.0876 12.5907 29.8425 12.3412 29.5449 12.1749C29.2561 12.0086 28.9366 11.9255 28.5865 11.9255C28.1839 11.9255 27.825 12.0218 27.5099 12.2143C27.1948 12.3981 26.9454 12.6695 26.7616 13.0283C26.5777 13.3784 26.4858 13.7855 26.4858 14.2493C26.4858 14.7132 26.5777 15.1246 26.7616 15.4835C26.9454 15.8336 27.1948 16.1049 27.5099 16.2975C27.825 16.4813 28.1839 16.5732 28.5865 16.5732C28.9454 16.5732 29.2692 16.4901 29.5581 16.3238C29.8469 16.1575 30.0876 15.908 30.2802 15.5754L31.3961 16.245C31.1423 16.7526 30.7703 17.1421 30.2802 17.4135C29.79 17.6848 29.2255 17.8205 28.5865 17.8205Z" fill="#36A862"/>
<path d="M24.3326 14.2493C24.3239 14.3806 24.3151 14.5163 24.3063 14.6564H19.0416C19.1116 15.2515 19.3479 15.7242 19.7505 16.0743C20.1532 16.4244 20.6608 16.5995 21.2735 16.5995C22.0263 16.5995 22.6389 16.3369 23.1116 15.8117L23.8862 16.6914C23.2648 17.4441 22.3807 17.8205 21.2341 17.8205C20.5164 17.8205 19.8818 17.6673 19.3304 17.361C18.779 17.0546 18.3501 16.6301 18.0437 16.0874C17.7374 15.5448 17.5842 14.9321 17.5842 14.2493C17.5842 13.5666 17.733 12.9539 18.0306 12.4113C18.3282 11.8686 18.7352 11.4441 19.2516 11.1377C19.768 10.8314 20.3501 10.6782 20.9978 10.6782C21.6193 10.6782 22.1838 10.827 22.6915 11.1246C23.1991 11.4135 23.5974 11.8292 23.8862 12.3719C24.1838 12.9146 24.3326 13.5404 24.3326 14.2493ZM20.9978 11.8336C20.4639 11.8336 20.0131 12.0086 19.6455 12.3588C19.2866 12.7089 19.081 13.1684 19.0284 13.7373H22.9803C22.919 13.1684 22.7046 12.7089 22.337 12.3588C21.9781 12.0086 21.5317 11.8336 20.9978 11.8336Z" fill="#36A862"/>
<path d="M13.6301 10.6783C14.4616 10.6783 15.1225 10.9366 15.6126 11.453C16.1115 11.9606 16.361 12.7134 16.361 13.7112V17.7418H14.9299V13.9344C14.9299 13.2867 14.7855 12.8009 14.4966 12.477C14.2165 12.1532 13.8095 11.9913 13.2756 11.9913C12.6804 11.9913 12.2078 12.1838 11.8577 12.5689C11.5076 12.9453 11.3325 13.4836 11.3325 14.1838V17.7418H9.88831V8H11.3325V11.7943C11.5863 11.4355 11.9102 11.1597 12.3041 10.9672C12.6979 10.7746 13.14 10.6783 13.6301 10.6783Z" fill="#36A862"/>
<path d="M5.31849 17.86C4.44322 17.86 3.65109 17.6586 2.94212 17.256C2.23314 16.8446 1.67734 16.2801 1.27472 15.5624C0.87209 14.8446 0.670776 14.0394 0.670776 13.1466C0.670776 12.2451 0.87209 11.4398 1.27472 10.7308C1.67734 10.0131 2.23314 9.45292 2.94212 9.0503C3.65109 8.63892 4.44759 8.43323 5.33162 8.43323C6.03184 8.43323 6.67517 8.56014 7.26161 8.81397C7.84804 9.0678 8.3382 9.43542 8.73207 9.91682L7.78677 10.8621C7.13907 10.1356 6.34257 9.7724 5.39727 9.7724C4.78457 9.7724 4.23315 9.91682 3.743 10.2057C3.25284 10.4945 2.86772 10.8971 2.58763 11.4135C2.30754 11.93 2.1675 12.5076 2.1675 13.1466C2.1675 13.7855 2.30754 14.3632 2.58763 14.8796C2.86772 15.396 3.25284 15.7987 3.743 16.0875C4.23315 16.3764 4.78457 16.5208 5.39727 16.5208C6.34257 16.5208 7.13907 16.1532 7.78677 15.4179L8.73207 16.3632C8.3382 16.8534 7.84804 17.2254 7.26161 17.4792C6.67517 17.733 6.02747 17.86 5.31849 17.86Z" fill="#36A862"/>
</svg>
