<svg width="40" height="40" viewBox="0 0 40 40" fill="none" xmlns="http://www.w3.org/2000/svg">
<path d="M12.2222 15.7647H27.7778M12 17.6885C12 15.6979 12 14.7021 12.3876 13.9416C12.738 13.2633 13.2818 12.7195 13.9413 12.3878C14.7022 12 15.6978 12 17.6889 12H22.3111C24.3022 12 25.2978 12 26.0587 12.3878C26.728 12.7285 27.2711 13.2725 27.6124 13.9407C28 14.7031 28 15.6988 28 17.6894V22.3125C28 24.3031 28 25.2988 27.6124 26.0593C27.262 26.7376 26.7182 27.2814 26.0587 27.6132C25.2978 28 24.3022 28 22.3111 28H17.6889C15.6978 28 14.7022 28 13.9413 27.6122C13.2819 27.2807 12.7381 26.7372 12.3876 26.0593C12 25.2969 12 24.3012 12 22.3106V17.6885Z" stroke="#595959" stroke-width="1.5" stroke-linecap="round" stroke-linejoin="round"/>
<path d="M16 20H24" stroke="#595959" stroke-width="1.5" stroke-linecap="round" stroke-linejoin="round"/>
<path d="M16 23H24" stroke="#595959" stroke-width="1.5" stroke-linecap="round" stroke-linejoin="round"/>
</svg>
