<svg width="40" height="40" viewBox="0 0 40 40" fill="none" xmlns="http://www.w3.org/2000/svg">
<path d="M20.8 27.2006H27.2001M27.3393 15.85C27.5487 15.6406 27.7149 15.392 27.8282 15.1184C27.9416 14.8448 28 14.5516 28 14.2554C28 13.9593 27.9417 13.666 27.8284 13.3924C27.7152 13.1188 27.5491 12.8702 27.3397 12.6607C27.1303 12.4513 26.8817 12.2851 26.6081 12.1718C26.3345 12.0584 26.0413 12 25.7452 12C25.449 12 25.1558 12.0583 24.8821 12.1716C24.6085 12.2849 24.3599 12.4509 24.1505 12.6603L13.4736 23.3398C13.2878 23.525 13.1504 23.753 13.0736 24.0038L12.0167 27.4855C11.9961 27.5546 11.9945 27.6281 12.0122 27.6981C12.0299 27.7681 12.0663 27.832 12.1174 27.8831C12.1685 27.9341 12.2324 27.9703 12.3025 27.9879C12.3725 28.0055 12.446 28.0039 12.5152 27.9831L15.9976 26.927C16.2481 26.8508 16.4761 26.7143 16.6616 26.5294L27.3393 15.85Z" stroke="#595959" stroke-width="1.5" stroke-linecap="round" stroke-linejoin="round"/>
</svg>
