<svg width="40" height="40" viewBox="0 0 40 40" fill="none" xmlns="http://www.w3.org/2000/svg">
<path fill-rule="evenodd" clip-rule="evenodd" d="M12.893 19.9934C12.893 19.4647 12.6886 18.9577 12.3248 18.5838C11.961 18.21 11.4675 18 10.953 18H10.94C10.4255 18 9.93205 18.21 9.56822 18.5838C9.2044 18.9577 9 19.4647 9 19.9934V20.0066C9 20.5353 9.2044 21.0423 9.56822 21.4162C9.93205 21.79 10.4255 22 10.94 22H10.953C11.4675 22 11.961 21.79 12.3248 21.4162C12.6886 21.0423 12.893 20.5353 12.893 20.0066V19.9934ZM20.0065 18C20.521 18 21.0145 18.21 21.3783 18.5838C21.7421 18.9577 21.9465 19.4647 21.9465 19.9934V20.0066C21.9465 20.5353 21.7421 21.0423 21.3783 21.4162C21.0145 21.79 20.521 22 20.0065 22H19.9935C19.479 22 18.9855 21.79 18.6217 21.4162C18.2579 21.0423 18.0535 20.5353 18.0535 20.0066V19.9934C18.0535 19.4647 18.2579 18.9577 18.6217 18.5838C18.9855 18.21 19.479 18 19.9935 18H20.0065ZM29.06 18C29.5745 18 30.0679 18.21 30.4318 18.5838C30.7956 18.9577 31 19.4647 31 19.9934V20.0066C31 20.5353 30.7956 21.0423 30.4318 21.4162C30.0679 21.79 29.5745 22 29.06 22H29.047C28.5325 22 28.039 21.79 27.6752 21.4162C27.3114 21.0423 27.107 20.5353 27.107 20.0066V19.9934C27.107 19.4647 27.3114 18.9577 27.6752 18.5838C28.039 18.21 28.5325 18 29.047 18H29.06Z" fill="#595959"/>
</svg>
