<svg width="11" height="7" viewBox="0 0 11 7" fill="none" xmlns="http://www.w3.org/2000/svg">
<path fill-rule="evenodd" clip-rule="evenodd" d="M10.8073 0.180661C10.9307 0.296488 11 0.453497 11 0.617199C11 0.780902 10.9307 0.93791 10.8073 1.05374L4.65614 6.81934C4.53257 6.93502 4.36506 7 4.19041 7C4.01576 7 3.84826 6.93502 3.72469 6.81934L0.20976 3.52471C0.145009 3.46816 0.0930743 3.39996 0.0570534 3.32418C0.0210325 3.2484 0.00166388 3.1666 0.000102568 3.08366C-0.00145875 3.00071 0.0148192 2.91833 0.0479659 2.84141C0.0811125 2.76449 0.130448 2.69461 0.193031 2.63595C0.255613 2.57729 0.330159 2.53105 0.412222 2.49998C0.494285 2.46891 0.582184 2.45365 0.670675 2.45512C0.759165 2.45658 0.846435 2.47473 0.927278 2.5085C1.00812 2.54226 1.08088 2.59094 1.14122 2.65163L4.19041 5.50972L9.8758 0.180661C9.99938 0.0649778 10.1669 0 10.3415 0C10.5162 0 10.6837 0.0649778 10.8073 0.180661Z" fill="#EBF6EF"/>
</svg>
